# xmcd
#
# Track frame offsets: 
#        150
#        15027
#        34372
#        47657
#        69627
#        85375
#        101805
#        116987
#        130910
#        148602
#        164622
#
# Disc length: 2463 seconds
#
# Revision: 0
# Processed by: cddbd v1.5.2PL0 Copyright (c) Steve Scherf et al.
# Submitted via: ExactAudioCopyFreeDBPlugin 1.0
#
DISCID=9b099d0b
DTITLE=Candyman - I Thought U Knew
DYEAR=1993
DGENRE=Hip-Hop
TTITLE0=Skinz On Deck
TTITLE1=Sex It Up
TTITLE2=Wat Eva U Lyke
TTITLE3=Candyman, Do Me Right
TTITLE4=First Date
TTITLE5=Just Like Candy
TTITLE6=Life Goes On
TTITLE7=Don't Cry Dry Your Eyes
TTITLE8=Return Of The Candyman
TTITLE9=I Thought U Knew
TTITLE10=Get Respect
EXTD=
EXTT0=
EXTT1=
EXTT2=
EXTT3=
EXTT4=
EXTT5=
EXTT6=
EXTT7=
EXTT8=
EXTT9=
EXTT10=
PLAYORDER=
